# xmcd
#
# Track frame offsets:
#	150
#	14211
#	28134
#	42300
#
# Disc length: 793 seconds
#
# Revision: 0
# Processed by: cddbd v1.5.2PL0 Copyright (c) Steve Scherf et al.
# Submitted via: audiograbber 1.83.01
#
DISCID=32031704
DTITLE=Maria and Margot Hellwig - Schneewalzer
DYEAR=2000
DGENRE=Volksmusik
TTITLE0=Schneewalzer Peppperoni-Mix)
TTITLE1=Schneewalzer (Soft-Mix)
TTITLE2=Schneewalzer Karaoke-Pepperoni)
TTITLE3=Schneewalzer (karaoke)
EXTD=<http://www.hit-radio24.de>
EXTT0=
EXTT1=
EXTT2=
EXTT3=
PLAYORDER=
